<svg width="8" height="16" viewBox="0 0 8 16" fill="none" xmlns="http://www.w3.org/2000/svg">
<path fill-rule="evenodd" clip-rule="evenodd" d="M5.83323 0.666016H3.48237C2.67507 0.666016 1.96957 1.20506 1.76579 1.97759L0.0297878 8.55876C0.0100103 8.63374 0 8.71091 0 8.78839L0.00421089 8.876C0.0487844 9.33732 0.441722 9.6981 0.919867 9.6981H2.40554L1.44034 14.2355C1.36155 14.6055 1.52252 14.9852 1.84461 15.1891C2.27251 15.4599 2.84139 15.3364 3.11525 14.9132L7.85491 7.58932C7.94965 7.44292 8 7.27275 8 7.09894L7.99579 7.01133C7.95122 6.55001 7.55828 6.18923 7.08013 6.18923H6.14677L7.4671 3.10395C7.5596 2.88769 7.60726 2.65526 7.60726 2.42045C7.60726 1.4515 6.813 0.666016 5.83323 0.666016ZM3.48237 2.22551H5.83323C5.9421 2.22551 6.03035 2.31279 6.03035 2.42045C6.03035 2.44654 6.02505 2.47236 6.01478 2.49639L4.3089 6.48462C4.11098 6.94734 4.32984 7.48112 4.79773 7.67685L4.88424 7.7081C4.97212 7.73498 5.06376 7.74873 5.15609 7.74873H5.87869L3.72292 11.0802L4.11615 9.23572C4.22081 8.74408 3.90265 8.26162 3.40552 8.15812L3.3202 8.14449L3.26088 8.14023C3.24845 8.13971 3.23391 8.13922 3.21601 8.1386H1.77017L3.29164 2.37124C3.31428 2.28541 3.39267 2.22551 3.48237 2.22551Z" fill="#DA2E9A"/>
</svg>
