<svg width="48" height="48" viewBox="0 0 48 48" fill="none" xmlns="http://www.w3.org/2000/svg">
<path d="M46.4707 0H35.1759C34.4014 0 33.7734 0.627945 33.7734 1.4025C33.7734 2.17705 34.4014 2.80499 35.1759 2.80499H45.0683V13.5405C45.0683 14.315 45.6963 14.943 46.4708 14.943C47.2454 14.943 47.8733 14.315 47.8733 13.5405V1.4025C47.8732 0.627945 47.2454 0 46.4707 0V0Z" fill="black"/>
<path d="M1.41177 14.0999C2.18633 14.0999 2.81427 13.4719 2.81427 12.6974V2.80499H13.5497C14.3243 2.80499 14.9522 2.17705 14.9522 1.4025C14.9522 0.627945 14.3243 0 13.5497 0H1.41177C0.637222 0 0.00927734 0.627945 0.00927734 1.4025V12.6974C0.00927734 13.4719 0.637129 14.0999 1.41177 14.0999Z" fill="black"/>
<path d="M12.6973 45.1946H2.80499V34.4591C2.80499 33.6846 2.17705 33.0566 1.4025 33.0566C0.627945 33.0566 0 33.6846 0 34.4591V46.5971C0 47.3717 0.627945 47.9996 1.4025 47.9996H12.6974C13.4719 47.9996 14.0999 47.3717 14.0999 46.5971C14.0999 45.8226 13.4719 45.1946 12.6973 45.1946Z" fill="black"/>
<path d="M46.4614 33.9004C45.6869 33.9004 45.0589 34.5283 45.0589 35.3029V45.1953H34.3234C33.5488 45.1953 32.9209 45.8232 32.9209 46.5978C32.9209 47.3723 33.5488 48.0003 34.3234 48.0003H46.4613C47.2359 48.0003 47.8638 47.3723 47.8638 46.5978V35.3029C47.8639 34.5283 47.236 33.9004 46.4614 33.9004Z" fill="black"/>
<path d="M18.3417 22.5254H15.3341C14.5596 22.5254 13.9316 23.1533 13.9316 23.9279C13.9316 24.7024 14.5596 25.3304 15.3341 25.3304H18.3417C19.1162 25.3304 19.7441 24.7024 19.7441 23.9279C19.7441 23.1533 19.1163 22.5254 18.3417 22.5254Z" fill="black"/>
<path d="M7.00797 25.3304H9.98575C10.7603 25.3304 11.3882 24.7024 11.3882 23.9279C11.3882 23.1533 10.7603 22.5254 9.98575 22.5254H7.00797C6.23341 22.5254 5.60547 23.1533 5.60547 23.9279C5.60547 24.7024 6.23341 25.3304 7.00797 25.3304Z" fill="black"/>
<path d="M23.9416 19.9798C24.7161 19.9798 25.344 19.3519 25.344 18.5773V6.98258C25.344 6.20802 24.7161 5.58008 23.9416 5.58008C23.167 5.58008 22.5391 6.20802 22.5391 6.98258V18.5773C22.5391 19.3519 23.167 19.9798 23.9416 19.9798Z" fill="black"/>
<path d="M18.3427 27.8594H7.00797C6.23341 27.8594 5.60547 28.4873 5.60547 29.2619V40.8566C5.60547 41.6312 6.23341 42.2591 7.00797 42.2591H18.3428C19.1173 42.2591 19.7453 41.6312 19.7453 40.8566V29.2619C19.7452 28.4873 19.1173 27.8594 18.3427 27.8594ZM14.4999 36.1811C14.4999 36.5923 14.1666 36.9256 13.7555 36.9256H11.5953C11.1841 36.9256 10.8508 36.5923 10.8508 36.1811V33.9371C10.8508 33.526 11.1841 33.1927 11.5953 33.1927H13.7555C14.1666 33.1927 14.4999 33.526 14.4999 33.9371V36.1811Z" fill="black"/>
<path d="M42.2986 40.8565V34.1557C42.2986 33.3812 41.6706 32.7532 40.8961 32.7532H34.0073V30.3165C34.0073 29.5419 33.3793 28.914 32.6048 28.914H25.3441V25.3304H35.9312V27.2869C35.9312 28.0614 36.5592 28.6894 37.3337 28.6894C38.1083 28.6894 38.7362 28.0614 38.7362 27.2869V25.3304H40.8961C41.6706 25.3304 42.2986 24.7024 42.2986 23.9279C42.2986 23.1533 41.6706 22.5254 40.8961 22.5254H23.9416C23.167 22.5254 22.5391 23.1533 22.5391 23.9279V40.7923C22.5391 41.5668 23.167 42.1948 23.9416 42.1948C24.7161 42.1948 25.3441 41.5668 25.3441 40.7923V37.257H27.6145C28.3891 37.257 29.017 36.6291 29.017 35.8545C29.017 35.08 28.3891 34.452 27.6145 34.452H25.3441V31.719H31.2023V34.1557C31.2023 34.9303 31.8302 35.5582 32.6048 35.5582H39.4936V39.454H28.9363C28.1618 39.454 27.5338 40.082 27.5338 40.8565C27.5338 41.6311 28.1618 42.259 28.9363 42.259H40.8961C41.6706 42.259 42.2986 41.6311 42.2986 40.8565Z" fill="black"/>
<path d="M18.3427 5.58008H7.00797C6.23341 5.58008 5.60547 6.20802 5.60547 6.98258V18.5773C5.60547 19.3519 6.23341 19.9798 7.00797 19.9798H18.3428C19.1173 19.9798 19.7453 19.3519 19.7453 18.5773V6.98258C19.7452 6.20802 19.1173 5.58008 18.3427 5.58008ZM14.4999 13.9019C14.4999 14.3131 14.1666 14.6464 13.7555 14.6464H11.5953C11.1841 14.6464 10.8508 14.3131 10.8508 13.9019V11.6579C10.8508 11.2468 11.1841 10.9135 11.5953 10.9135H13.7555C14.1666 10.9135 14.4999 11.2468 14.4999 11.6579V13.9019Z" fill="black"/>
<path d="M29.5617 19.9798H40.8964C41.6709 19.9798 42.2989 19.3519 42.2989 18.5773V6.98258C42.2989 6.20802 41.6709 5.58008 40.8964 5.58008H29.5617C28.7871 5.58008 28.1592 6.20802 28.1592 6.98258V18.5773C28.1592 19.3519 28.787 19.9798 29.5617 19.9798ZM33.4044 11.7179C33.4044 11.3068 33.7378 10.9734 34.1489 10.9734H36.3091C36.7202 10.9734 37.0535 11.3068 37.0535 11.7179V13.9618C37.0535 14.3729 36.7202 14.7062 36.3091 14.7062H34.1489C33.7378 14.7062 33.4044 14.3729 33.4044 13.9618V11.7179Z" fill="black"/>
</svg>
