<?xml version="1.0" encoding="utf-8"?>
<!-- Generator: Adobe Illustrator 25.4.1, SVG Export Plug-In . SVG Version: 6.00 Build 0)  -->
<svg version="1.1" id="Layer_1" xmlns="http://www.w3.org/2000/svg" xmlns:xlink="http://www.w3.org/1999/xlink" x="0px" y="0px"
	 viewBox="0 0 117.79 102.19" style="enable-background:new 0 0 117.79 102.19;" xml:space="preserve">
<style type="text/css">
	.st0{fill:#010101;}
</style>
<g>
	<g>
		<g>
			<path class="st0" d="M44.63,34.38c1,1.31,1.5,2.92,1.5,4.83c0,2.71-1.05,4.79-3.15,6.24c-2.1,1.46-5.17,2.18-9.2,2.18H17.82
				V16.76H32.9c3.76,0,6.65,0.72,8.67,2.16c2.01,1.44,3.02,3.4,3.02,5.87c0,1.5-0.36,2.84-1.08,4.01c-0.72,1.18-1.73,2.1-3.02,2.78
				C42.25,32.14,43.63,33.07,44.63,34.38z M24.92,22.14v7.28h7.1c1.76,0,3.1-0.31,4.01-0.93c0.91-0.62,1.37-1.53,1.37-2.73
				c0-1.21-0.46-2.11-1.37-2.71c-0.91-0.6-2.25-0.9-4.01-0.9H24.92z M37.51,41.33c0.95-0.62,1.43-1.57,1.43-2.87
				c0-2.56-1.9-3.84-5.69-3.84h-8.33v7.63h8.33C35.14,42.25,36.56,41.95,37.51,41.33z"/>
			<path class="st0" d="M52.77,16.76h7.14v30.87h-7.14V16.76z"/>
			<path class="st0" d="M75.53,45.63c-2.49-1.34-4.44-3.18-5.85-5.53c-1.41-2.35-2.12-4.99-2.12-7.93s0.71-5.58,2.12-7.93
				c1.41-2.35,3.36-4.19,5.85-5.53c2.49-1.34,5.29-2.01,8.4-2.01c3.1,0,5.9,0.67,8.37,2.01c2.48,1.34,4.43,3.18,5.85,5.53
				c1.42,2.35,2.14,4.99,2.14,7.93s-0.71,5.58-2.14,7.93c-1.42,2.35-3.38,4.19-5.85,5.53c-2.48,1.34-5.27,2.01-8.37,2.01
				C80.82,47.63,78.02,46.97,75.53,45.63z M88.71,40.52c1.42-0.81,2.54-1.94,3.35-3.4c0.81-1.45,1.22-3.1,1.22-4.96
				c0-1.85-0.41-3.5-1.22-4.96c-0.81-1.45-1.93-2.58-3.35-3.4c-1.43-0.81-3.02-1.22-4.79-1.22c-1.77,0-3.36,0.41-4.78,1.22
				c-1.43,0.81-2.54,1.94-3.35,3.4c-0.81,1.45-1.22,3.1-1.22,4.96c0,1.85,0.41,3.5,1.22,4.96c0.81,1.45,1.93,2.58,3.35,3.4
				c1.42,0.81,3.02,1.22,4.78,1.22C85.69,41.74,87.29,41.33,88.71,40.52z"/>
		</g>
		<g>
			<g>
				<path class="st0" d="M62.81,85.65l-0.04-18.52l-9.08,15.26h-3.22l-9.04-14.86v18.13h-6.7V54.78h5.91l11.55,19.18l11.38-19.18
					h5.87l0.09,30.87H62.81z"/>
				<path class="st0" d="M100.29,79.92v5.73h-23.9V54.78h23.33v5.73H83.49v6.7h14.33v5.56H83.49v7.14H100.29z"/>
			</g>
		</g>
	</g>
	<g>
		<g>
			<g>
				<path class="st0" d="M17.97,67.79h10.52v1.89H17.97V67.79z"/>
			</g>
		</g>
		<g>
			<g>
				<path class="st0" d="M27.19,66.37l-1.33-1.24c-1.06,0.82-2.3,1.24-3.71,1.24c-0.8,0-1.53-0.13-2.17-0.39
					c-0.65-0.26-1.15-0.62-1.52-1.09c-0.36-0.47-0.55-0.99-0.55-1.57c0-0.69,0.19-1.29,0.58-1.82c0.39-0.52,1.01-1.02,1.86-1.5
					c-0.4-0.41-0.69-0.81-0.87-1.18c-0.18-0.37-0.27-0.76-0.27-1.17c0-0.54,0.14-1.02,0.43-1.43c0.29-0.41,0.69-0.73,1.21-0.96
					s1.13-0.34,1.82-0.34c0.96,0,1.73,0.23,2.32,0.69c0.58,0.46,0.87,1.08,0.87,1.86c0,0.57-0.17,1.08-0.52,1.52
					c-0.34,0.44-0.9,0.87-1.66,1.28l2.03,1.89c0.24-0.51,0.43-1.08,0.56-1.73l1.98,0.62c-0.21,0.98-0.55,1.82-1.02,2.52l1.3,1.21
					L27.19,66.37z M24.4,63.78l-2.68-2.51c-0.5,0.29-0.85,0.57-1.06,0.84c-0.21,0.28-0.32,0.59-0.32,0.94c0,0.41,0.18,0.75,0.54,1
					c0.36,0.25,0.84,0.38,1.44,0.38C23.1,64.43,23.79,64.22,24.4,63.78z M21.79,56.9c-0.22,0.19-0.32,0.43-0.32,0.73
					c0,0.22,0.06,0.43,0.17,0.63c0.12,0.2,0.34,0.46,0.68,0.78c0.54-0.29,0.91-0.54,1.13-0.77c0.21-0.23,0.32-0.47,0.32-0.74
					c0-0.27-0.1-0.5-0.29-0.67c-0.19-0.17-0.46-0.25-0.81-0.25C22.3,56.61,22.01,56.71,21.79,56.9z"/>
			</g>
		</g>
	</g>
</g>
</svg>
